<?xml version="1.0" encoding="UTF-8"?>
<svg xmlns="http://www.w3.org/2000/svg" width="1024" height="1024" viewBox="0 0 1024 1024">
  <path d="M 670 683 L 630 770 L 652 770 L 661 751 L 703 751 L 712 770 L 734 770 L 696 683 Z M 682 703 L 684 704 L 697 734 L 696 736 L 668 735 Z M 531 683 L 531 770 L 552 770 L 553 742 L 571 742 L 592 770 L 615 770 L 611 763 L 593 741 L 594 738 L 600 736 L 607 730 L 612 720 L 613 709 L 611 701 L 607 694 L 598 687 L 584 683 Z M 552 700 L 583 700 L 590 706 L 591 716 L 586 723 L 579 726 L 553 726 Z M 290 683 L 291 770 L 312 770 L 313 714 L 360 770 L 380 770 L 380 683 L 358 683 L 357 737 L 313 683 Z M 433 685 L 421 692 L 413 700 L 406 715 L 406 737 L 412 751 L 420 760 L 426 764 L 446 771 L 465 771 L 476 768 L 489 761 L 498 752 L 505 736 L 505 718 L 503 710 L 498 701 L 493 695 L 485 689 L 467 682 L 452 681 Z M 446 699 L 460 698 L 467 700 L 475 705 L 482 715 L 484 723 L 482 738 L 472 750 L 466 753 L 457 755 L 445 753 L 439 750 L 431 742 L 428 736 L 428 716 L 432 709 L 438 703 Z M 530 568 L 516 565 L 495 567 L 484 573 L 475 582 L 473 586 L 474 592 L 478 598 L 498 616 L 508 620 L 515 620 L 521 618 L 538 605 L 545 598 L 550 589 L 548 582 L 539 573 Z M 700 382 L 685 409 L 668 434 L 622 491 L 603 519 L 590 543 L 584 558 L 581 569 L 582 579 L 587 579 L 594 576 L 642 547 L 680 520 L 696 507 L 703 499 L 710 481 L 711 446 L 706 409 L 695 421 L 694 420 L 701 399 Z M 323 382 L 322 400 L 330 422 L 329 423 L 318 409 L 315 420 L 312 444 L 312 475 L 317 494 L 324 504 L 333 512 L 369 539 L 427 575 L 436 579 L 441 579 L 442 568 L 438 555 L 420 519 L 401 491 L 350 427 L 338 409 Z M 558 255 L 465 255 L 477 284 L 493 337 L 502 377 L 511 431 L 524 362 L 534 322 L 548 278 Z M 662 238 L 642 239 L 633 242 L 613 253 L 599 268 L 591 287 L 585 315 L 578 383 L 572 408 L 562 437 L 554 476 L 553 527 L 556 544 L 560 549 L 564 546 L 574 516 L 583 497 L 610 457 L 618 442 L 625 421 L 627 408 L 631 399 L 677 331 L 674 326 L 672 330 L 663 339 L 662 338 L 670 310 L 675 275 L 675 262 L 673 250 L 670 244 Z M 601 424 L 602 434 L 598 443 L 593 448 L 585 452 L 579 453 L 579 447 L 587 433 L 597 425 Z M 361 238 L 353 244 L 350 250 L 348 262 L 348 276 L 351 303 L 356 325 L 361 338 L 360 339 L 349 327 L 346 331 L 396 406 L 398 421 L 404 440 L 414 459 L 424 472 L 442 501 L 450 519 L 458 545 L 461 549 L 463 549 L 466 546 L 468 540 L 470 527 L 469 476 L 462 441 L 452 412 L 446 389 L 440 342 L 439 323 L 433 291 L 425 270 L 411 254 L 402 248 L 381 239 Z M 422 423 L 431 429 L 438 436 L 443 445 L 445 451 L 444 453 L 432 449 L 425 443 L 421 435 Z" fill="#000000" fill-rule="evenodd"/>
</svg>
